<svg xmlns="http://www.w3.org/2000/svg" xmlns:xlink="http://www.w3.org/1999/xlink" viewBox="1649 0 1366 768"><defs><style>.a{clip-path:url(#l);}.b{fill:rgba(230,228,228,0.9);}.c,.f{fill:#101010;}.c,.g,.i,.u,.x{stroke:#95989a;}.d{fill:#080808;}.e{fill:#95989a;}.ac,.e,.h,.k,.l,.m{font-size:20px;}.ad,.e,.h,.l{font-family:SegoeUI-Bold, Segoe UI;font-weight:700;}.aj,.g,.h,.k,.n,.o,.p,.t{fill:#9d9d9d;}.i,.l,.m,.w,.x{fill:#fff;}.j{fill:#d9534f;}.ab,.ac,.ae,.ah,.ai,.k,.m,.p,.t,.y,.z{stroke:#9d9d9d;}.ab,.ac,.ae,.af,.ah,.ai,.aj,.k,.m,.p,.t,.y,.z{font-family:SegoeUI, Segoe UI;}.n{stroke:#5f6061;}.p{font-size:14px;}.q{fill:url(#e);}.r{fill:url(#f);}.s{fill:url(#g);}.t{font-size:10px;}.al,.u{fill:none;}.v{fill:url(#h);}.x{opacity:0.5;}.ab,.ad,.y{font-size:18px;}.z{font-size:17.2px;}.aa{fill:#d95e5e;}.ab{opacity:0.29;}.ae{font-size:15px;}.af,.ai{font-size:25px;}.ag{fill:rgba(248,248,248,0.67);}.ah{font-size:16px;}.aj{font-size:13px;}.ak{stroke:none;}.am{filter:url(#i);}.an{filter:url(#c);}.ao{filter:url(#a);}</style><filter id="a" x="1649" y="63" width="1367" height="629" filterUnits="userSpaceOnUse"><feOffset dx="1" dy="1" input="SourceAlpha"/><feGaussianBlur result="b"/><feFlood flood-opacity="0.161"/><feComposite operator="in" in2="b"/><feComposite in="SourceGraphic"/></filter><filter id="c" x="2853.995" y="19.833" width="37.387" height="31.351" filterUnits="userSpaceOnUse"><feOffset dy="3" input="SourceAlpha"/><feGaussianBlur stdDeviation="3" result="d"/><feFlood flood-color="#070707"/><feComposite operator="in" in2="d"/><feComposite in="SourceGraphic"/></filter><pattern id="e" preserveAspectRatio="none" width="100%" height="100%" viewBox="0 0 383 132"><image width="383" height="132" xlink:href="../../../Desktop/ProjGit/Proj%20X/Images/img.png"/></pattern><pattern id="f" preserveAspectRatio="none" width="100%" height="100%" viewBox="0 0 194 188"><image width="194" height="188" xlink:href="../../../Desktop/ProjGit/Proj%20X/Images/Facebook.png"/></pattern><pattern id="g" preserveAspectRatio="none" width="100%" height="100%" viewBox="0 0 408 401"><image width="408" height="401" xlink:href="../../../Desktop/ProjGit/Proj%20X/Images/flying-twitter-bird-icon-.jpg"/></pattern><pattern id="h" preserveAspectRatio="none" width="100%" height="100%" viewBox="0 0 579 480"><image width="579" height="480" xlink:href="../../../Desktop/ProjGit/Proj%20X/Images/Map.PNG"/></pattern><filter id="i" x="1795.5" y="139.5" width="248" height="51" filterUnits="userSpaceOnUse"><feOffset dy="3" input="SourceAlpha"/><feGaussianBlur stdDeviation="3" result="j"/><feFlood flood-opacity="0.439"/><feComposite operator="in" in2="j"/><feComposite in="SourceGraphic"/></filter><clipPath id="l"><rect x="1649" width="1366" height="768"/></clipPath></defs><g id="k" class="a"><rect class="w" x="1649" width="1366" height="768"/><g class="ao" transform="matrix(1, 0, 0, 1, 0, 0)"><rect class="b" width="1366" height="628" transform="translate(1649 63)"/></g><g transform="translate(1649)"><g class="c"><rect class="ak" width="1366" height="72"/><rect class="al" x="0.5" y="0.5" width="1365" height="71"/></g><rect class="d" width="150" height="72" transform="translate(149)"/><text class="e" transform="translate(224 39)"><tspan x="-28.345" y="0">Home</tspan></text><rect class="f" width="116" height="72" transform="translate(299)"/><text class="e" transform="translate(353.5 39)"><tspan x="-38.267" y="0">Services</tspan></text><rect class="f" width="147" height="72" transform="translate(410)"/><path class="g" d="M541.674,30.5l7.544,14.765L556.762,30.5Z" transform="translate(-12.004 -5)"/><text class="h" transform="translate(483 39)"><tspan x="-43.677" y="0">About Us</tspan></text><g transform="translate(0 -1)"><g class="i" transform="translate(837 16)"><rect class="ak" width="231" height="39" rx="19.5"/><rect class="al" x="0.5" y="0.5" width="230" height="38" rx="19"/></g><rect class="j" width="107" height="38" rx="5" transform="translate(1074 17)"/><text class="k" transform="translate(890 41)"><tspan x="-29.385" y="0">Search</tspan></text><text class="l" transform="translate(1127 44)"><tspan x="-31.157" y="0">Search</tspan></text></g><rect class="f" width="135" height="39" transform="translate(1215 16)"/><text class="m" transform="translate(1292 41)"><tspan x="-48.047" y="0">Contact Us</tspan></text><rect class="f" width="125" height="59" transform="translate(12 5)"/><g class="an" transform="matrix(1, 0, 0, 1, -1649, 0)"><path class="n" d="M1215,27.333h17.425l-8.344,12Z" transform="translate(1649 -1)"/></g><path class="o" d="M1215,27.333h8.92l-4.271,4.42Z" transform="translate(1259 -1184.917) rotate(90)"/><path class="o" d="M1215,27.333h15.417l-7.382,8.167Z" transform="translate(2446.667 67.83) rotate(180)"/><path class="o" d="M1215,27.333h8.92l-4.271,4.42Z" transform="translate(1187.914 1254.003) rotate(-90)"/></g><g transform="translate(1649)"><g class="c" transform="translate(0 690)"><rect class="ak" width="1366" height="78"/><rect class="al" x="0.5" y="0.5" width="1365" height="77"/></g><text class="p" transform="translate(65.5 715.5)"><tspan x="-39.748" y="0">Follow Us on</tspan></text><rect class="q" width="112" height="38" transform="translate(18 16)"/><image width="24" height="24" transform="translate(90 730)" xlink:href="../../../Desktop/ProjGit/Proj%20X/Images/Linkedin.png"/><rect class="r" width="25" height="24" transform="translate(26 729)"/><rect class="s" width="23" height="23.5" transform="translate(59 730)"/><g transform="translate(-440 12)"><text class="t" transform="translate(1095.5 716.5)"><tspan x="-187.339" y="0">Copyright © 2018 XYZ Company. All rights reserved | Designed &amp; Maintained by XYZ</tspan><tspan x="-136.982" y="14">Site best viewed at 1280x720 | Legal Disclaimer | Privacy Policy</tspan></text><line class="u" x2="19" transform="translate(1265.5 719.5)"/><line class="u" x2="72" transform="translate(1093.5 733.5)"/><line class="u" x1="57" transform="translate(1174.5 733.5)"/></g></g><g transform="translate(1649 -22)"><g class="i" transform="translate(870 129)"><rect class="ak" width="423" height="355"/><rect class="al" x="0.5" y="0.5" width="422" height="354"/></g><rect class="v" width="423" height="351" transform="translate(870 129)"/></g><g transform="translate(1626 30)"><rect class="w" width="497" height="441" rx="13" transform="translate(173 115)"/><g class="x" transform="translate(321 273)"><rect class="ak" width="334" height="41"/><rect class="al" x="0.5" y="0.5" width="333" height="40"/></g><g class="x" transform="translate(321 227)"><rect class="ak" width="334" height="37"/><rect class="al" x="0.5" y="0.5" width="333" height="36"/></g><g class="x" transform="translate(321 178)"><rect class="ak" width="334" height="36"/><rect class="al" x="0.5" y="0.5" width="333" height="35"/></g><text class="y" transform="translate(249.5 197.5)"><tspan x="-71.763" y="0">Enter Full Name * </tspan></text><text class="y" transform="translate(236 250)"><tspan x="-50.458" y="0">Enter Email *</tspan></text><text class="z" transform="translate(249 296)"><tspan x="-70.089" y="0">Enter Mobile No. *</tspan></text><g class="x" transform="translate(321 334)"><rect class="ak" width="334" height="142"/><rect class="al" x="0.5" y="0.5" width="333" height="141"/></g><rect class="aa" width="180" height="50" rx="9" transform="translate(321 496)"/><text class="ab" transform="translate(433 357)"><tspan x="-100.046" y="0">Enter your message here.</tspan></text><text class="ac" transform="translate(245.5 358.5)"><tspan x="-45.386" y="0">Enter your</tspan><tspan x="-45.811" y="27">Message *</tspan></text><text class="ad" transform="translate(407 526)"><tspan x="-30.375" y="0">Submit</tspan></text><text class="ae" transform="translate(255.5 165.5)"><tspan x="-76.128" y="0">We would love to here.</tspan></text><g class="am" transform="matrix(1, 0, 0, 1, -1626, -30)"><text class="af" transform="translate(1919.5 172.5)"><tspan x="-114.471" y="0">Send Us a Message:-</tspan></text></g></g><g transform="translate(1591 -8)"><rect class="ag" width="610" height="214" transform="translate(741 478)"/><text class="ah" transform="translate(1033.917 510.87)"><tspan x="-28.336" y="0">Address</tspan><tspan x="-41.492" y="21">123 Bree St.</tspan><tspan x="-38.508" y="42">Cape Town</tspan><tspan x="0" y="63"></tspan><tspan x="-22.406" y="84">Phone</tspan><tspan x="-113.27" y="105">021-465-1354 Cape Town Office</tspan><tspan x="0" y="126"></tspan><tspan x="-18.883" y="147">Email</tspan><tspan x="-61.906" y="168">contact@xyz.com</tspan></text><text class="ai" transform="translate(825.747 513.271)"><tspan x="-66.034" y="0">Find Us at :-</tspan></text></g><g transform="translate(1649)"><g transform="translate(0 51)"><rect class="f" width="147" height="36" transform="translate(410 68)"/><text class="aj" transform="translate(476 89.902)"><tspan x="-35.004" y="0">Testimonails</tspan></text></g><g transform="translate(-246 -369)"><path class="f" d="M0,0H147V47H0Z" transform="translate(656 441)"/><text class="aj" transform="translate(720 478.5)"><tspan x="-38.327" y="0">Privacy Policy</tspan></text><text class="aj" transform="translate(719 456.621)"><tspan x="-46.554" y="0">Legal Disclaimer</tspan></text></g></g></g></svg>