<svg xmlns="http://www.w3.org/2000/svg" xmlns:xlink="http://www.w3.org/1999/xlink" viewBox="0 0 1366 768"><defs><style>.a{clip-path:url(#n);}.b{fill:rgba(230,228,228,0.9);}.ac,.ae,.c,.d,.h,.k,.r,.u{stroke:#95989a;}.c{fill:url(#a);}.d,.g{fill:#101010;}.e{fill:#080808;}.f{fill:#95989a;}.ad,.f,.i,.m,.n,.o{font-size:20px;}.f,.i,.n,.s{font-family:SegoeUI-Bold, Segoe UI;font-weight:700;}.ab,.h,.i,.j,.m,.p,.q,.w,.x{fill:#9d9d9d;}.j{font-size:13px;}.ab,.ad,.af,.ah,.aj,.j,.m,.o,.t,.w,.x{font-family:SegoeUI, Segoe UI;}.am,.k,.n,.o{fill:#fff;}.l{fill:#d9534f;}.ab,.m,.o,.s,.t,.w,.x{stroke:#9d9d9d;}.p{stroke:#5f6061;}.al,.r,.u{fill:none;}.s,.t{fill:rgba(255,192,65,0.84);}.s{font-size:42px;}.t{font-size:22px;}.u{stroke-width:5px;opacity:0.16;}.v{fill:url(#f);}.w{font-size:15px;}.x{font-size:14px;}.y{fill:url(#g);}.z{fill:url(#h);}.aa{fill:url(#i);}.ab{font-size:10px;}.ac{fill:url(#j);}.ae{fill:rgba(230,112,51,0.9);}.af{font-size:8px;}.ag{fill:url(#l);}.ah{font-size:25px;}.ai{fill:rgba(174,174,174,0.53);}.aj{font-size:28px;}.ak{stroke:none;}.an{filter:url(#d);}.ao{filter:url(#b);}</style><linearGradient id="a" x2="1" y2="1" gradientUnits="objectBoundingBox"><stop offset="0" stop-color="#ffe6e6"/><stop offset="0.142" stop-color="red" stop-opacity="0.651"/><stop offset="0.433" stop-color="#c90595"/><stop offset="0.704" stop-color="#650c9f"/><stop offset="1" stop-color="#a613e3"/></linearGradient><filter id="b" x="1204.995" y="19.833" width="37.387" height="31.351" filterUnits="userSpaceOnUse"><feOffset dy="3" input="SourceAlpha"/><feGaussianBlur stdDeviation="3" result="c"/><feFlood flood-color="#070707"/><feComposite operator="in" in2="c"/><feComposite in="SourceGraphic"/></filter><filter id="d" x="328.5" y="217" width="726" height="23" filterUnits="userSpaceOnUse"><feOffset dy="3" input="SourceAlpha"/><feGaussianBlur stdDeviation="3" result="e"/><feFlood flood-opacity="0.651"/><feComposite operator="in" in2="e"/><feComposite in="SourceGraphic"/></filter><pattern id="f" preserveAspectRatio="none" width="100%" height="100%" viewBox="0 0 225 163"><image width="225" height="163" xlink:href="../../../Desktop/ProjGit/Proj%20X/Images/Mail_envelope_letter.png"/></pattern><pattern id="g" preserveAspectRatio="none" width="100%" height="100%" viewBox="0 0 383 132"><image width="383" height="132" xlink:href="../../../Desktop/ProjGit/Proj%20X/Images/img.png"/></pattern><pattern id="h" preserveAspectRatio="none" width="100%" height="100%" viewBox="0 0 194 188"><image width="194" height="188" xlink:href="../../../Desktop/ProjGit/Proj%20X/Images/Facebook.png"/></pattern><pattern id="i" preserveAspectRatio="none" width="100%" height="100%" viewBox="0 0 408 401"><image width="408" height="401" xlink:href="../../../Desktop/ProjGit/Proj%20X/Images/flying-twitter-bird-icon-.jpg"/></pattern><linearGradient id="j" x1="0.982" y1="0.098" x2="0" y2="0.927" gradientUnits="objectBoundingBox"><stop offset="0" stop-color="#f34c4c"/><stop offset="0.46" stop-color="#b86ef8"/><stop offset="1" stop-color="#005dff" stop-opacity="0.851"/></linearGradient><linearGradient id="l" x1="0.915" y1="0.109" x2="0.127" y2="0.891" gradientUnits="objectBoundingBox"><stop offset="0" stop-color="#fb9e9e"/><stop offset="0.476" stop-color="#d884ec"/><stop offset="1" stop-color="#45aadf"/></linearGradient><clipPath id="n"><rect width="1366" height="768"/></clipPath></defs><g id="m" class="a"><rect class="am" width="1366" height="768"/><rect class="b" width="1366" height="281" transform="translate(0 409)"/><g class="c" transform="translate(0 72)"><rect class="ak" width="1366" height="337"/><rect class="al" x="0.5" y="0.5" width="1365" height="336"/></g><g class="d"><rect class="ak" width="1366" height="72"/><rect class="al" x="0.5" y="0.5" width="1365" height="71"/></g><rect class="e" width="150" height="72" transform="translate(149)"/><text class="f" transform="translate(224 39)"><tspan x="-28.345" y="0">Home</tspan></text><rect class="g" width="116" height="72" transform="translate(299)"/><text class="f" transform="translate(353.5 39)"><tspan x="-38.267" y="0">Services</tspan></text><rect class="g" width="147" height="72" transform="translate(410)"/><path class="h" d="M541.674,30.5l7.544,14.765L556.762,30.5Z" transform="translate(-12.004 -5)"/><text class="i" transform="translate(483 39)"><tspan x="-43.677" y="0">About Us</tspan></text><g transform="translate(0 51)"><rect class="g" width="147" height="36" transform="translate(410 68)"/><text class="j" transform="translate(476 89.902)"><tspan x="-35.004" y="0">Testimonails</tspan></text></g><g transform="translate(-246 -369)"><path class="g" d="M0,0H147V47H0Z" transform="translate(656 441)"/><text class="j" transform="translate(720 478.5)"><tspan x="-38.327" y="0">Privacy Policy</tspan></text><text class="j" transform="translate(719 456.621)"><tspan x="-46.554" y="0">Legal Disclaimer</tspan></text></g><g transform="translate(0 -1)"><g class="k" transform="translate(837 16)"><rect class="ak" width="231" height="39" rx="19.5"/><rect class="al" x="0.5" y="0.5" width="230" height="38" rx="19"/></g><rect class="l" width="107" height="38" rx="5" transform="translate(1074 17)"/><text class="m" transform="translate(890 41)"><tspan x="-29.385" y="0">Search</tspan></text><text class="n" transform="translate(1127 44)"><tspan x="-31.157" y="0">Search</tspan></text></g><rect class="g" width="135" height="39" transform="translate(1215 16)"/><text class="o" transform="translate(1292 41)"><tspan x="-48.047" y="0">Contact Us</tspan></text><rect class="g" width="125" height="59" transform="translate(12 5)"/><g class="ao" transform="matrix(1, 0, 0, 1, 0, 0)"><path class="p" d="M1215,27.333h17.425l-8.344,12Z" transform="translate(0 -1)"/></g><path class="q" d="M1215,27.333h8.92l-4.271,4.42Z" transform="translate(1259 -1184.917) rotate(90)"/><path class="q" d="M1215,27.333h15.417l-7.382,8.167Z" transform="translate(2446.667 67.83) rotate(180)"/><path class="q" d="M1215,27.333h8.92l-4.271,4.42Z" transform="translate(1187.914 1254.003) rotate(-90)"/><g class="r" transform="translate(310 124)"><rect class="ak" width="777" height="241"/><rect class="al" x="0.5" y="0.5" width="776" height="240"/></g><text class="s" transform="translate(692 200)"><tspan x="-353.924" y="0">Welcome to Local Delivery Network</tspan></text><text class="t" transform="translate(699 278)"><tspan x="-254.354" y="0" xml:space="preserve">dsnjdnvjkvndj  ioefdud dhufheuicvn ufcuhduhch cdu</tspan><tspan x="-168.045" y="30">edbcbjdjnens jicnsnnsjdn dccnjdnc</tspan></text><g class="an" transform="matrix(1, 0, 0, 1, 0, 0)"><line class="u" x2="708" transform="translate(337.5 225.5)"/></g><g class="d" transform="translate(0 690)"><rect class="ak" width="1366" height="78"/><rect class="al" x="0.5" y="0.5" width="1365" height="77"/></g><rect class="v" width="26" height="19" transform="translate(425 729)"/><text class="w" transform="translate(455.5 716.5)"><tspan x="-36.035" y="0">Contact Us</tspan></text><text class="x" transform="translate(65.5 715.5)"><tspan x="-39.748" y="0">Follow Us on</tspan></text><rect class="y" width="112" height="38" transform="translate(18 16)"/><image width="24" height="24" transform="translate(90 730)" xlink:href="../../../Desktop/ProjGit/Proj%20X/Images/Linkedin.png"/><rect class="z" width="25" height="24" transform="translate(26 729)"/><rect class="aa" width="23" height="23.5" transform="translate(59 730)"/><text class="ab" transform="translate(1095.5 716.5)"><tspan x="-188.306" y="0">Copyright © 2018 XYZ. All rights reserved | Designed &amp; Maintained by XYZ</tspan><tspan x="-136.982" y="14">Site best viewed at 1280x720 | Legal Disclaimer | Privacy Policy</tspan></text><line class="r" x2="19" transform="translate(1265.5 719.5)"/><line class="r" x2="72" transform="translate(1093.5 733.5)"/><line class="r" x1="57" transform="translate(1174.5 733.5)"/><g class="ac" transform="translate(317 420)"><rect class="ak" width="227" height="82"/><rect class="al" x="0.5" y="0.5" width="226" height="81"/></g><text class="ad" transform="translate(431 447)"><tspan x="-90.503" y="0">For Business Owners</tspan></text><g class="ae" transform="translate(379 465)"><rect class="ak" width="95" height="25"/><rect class="al" x="0.5" y="0.5" width="94" height="24"/></g><text class="af" transform="translate(427 481)"><tspan x="-40.709" y="0">Click for Login/Sign Up</tspan></text><g class="ac" transform="translate(756 420)"><rect class="ak" width="227" height="82"/><rect class="al" x="0.5" y="0.5" width="226" height="81"/></g><g class="ae" transform="translate(818 465)"><rect class="ak" width="95" height="25"/><rect class="al" x="0.5" y="0.5" width="94" height="24"/></g><text class="af" transform="translate(866 481)"><tspan x="-40.709" y="0">Click for Login/Sign Up</tspan></text><text class="ad" transform="translate(870 447)"><tspan x="-98.574" y="0">For Working Members</tspan></text><rect class="ag" width="284" height="156" transform="translate(130 515)"/><text class="ah" transform="translate(260 604)"><tspan x="-34.351" y="0">Image</tspan></text><rect class="ai" width="571" height="141" transform="translate(612 522)"/><text class="aj" transform="translate(888 570)"><tspan x="-150.753" y="0" xml:space="preserve">fdvbj  jd jdn jdvbjksdbjv </tspan><tspan x="-68.633" y="37">dcvjhdsbjvj</tspan><tspan x="-58.775" y="74">vjdsnbjvd</tspan></text></g></svg>