<svg xmlns="http://www.w3.org/2000/svg" xmlns:xlink="http://www.w3.org/1999/xlink" viewBox="0 -930 1366 768"><defs><style>.a{clip-path:url(#g);}.b{fill:rgba(230,228,228,0.9);}.c,.f{fill:#101010;}.c,.g,.j,.v{stroke:#95989a;}.d{fill:#080808;}.e{fill:#95989a;}.e,.h,.l,.m,.n{font-size:20px;}.e,.h,.m{font-family:SegoeUI-Bold, Segoe UI;font-weight:700;}.g,.h,.i,.l,.o,.p,.q,.u{fill:#9d9d9d;}.i{font-size:13px;}.i,.l,.n,.q,.u{font-family:SegoeUI, Segoe UI;}.j,.m,.n,.y{fill:#fff;}.k{fill:#d9534f;}.l,.n,.q,.u{stroke:#9d9d9d;}.o{stroke:#5f6061;}.q{font-size:14px;}.r{fill:url(#c);}.s{fill:url(#d);}.t{fill:url(#e);}.u{font-size:10px;}.v,.x{fill:none;}.w{stroke:none;}.z{filter:url(#a);}</style><filter id="a" x="1204.995" y="-910.167" width="37.387" height="31.351" filterUnits="userSpaceOnUse"><feOffset dy="3" input="SourceAlpha"/><feGaussianBlur stdDeviation="3" result="b"/><feFlood flood-color="#070707"/><feComposite operator="in" in2="b"/><feComposite in="SourceGraphic"/></filter><pattern id="c" preserveAspectRatio="none" width="100%" height="100%" viewBox="0 0 383 132"><image width="383" height="132" xlink:href="../../../Desktop/ProjGit/Proj%20X/Images/img.png"/></pattern><pattern id="d" preserveAspectRatio="none" width="100%" height="100%" viewBox="0 0 194 188"><image width="194" height="188" xlink:href="../../../Desktop/ProjGit/Proj%20X/Images/Facebook.png"/></pattern><pattern id="e" preserveAspectRatio="none" width="100%" height="100%" viewBox="0 0 408 401"><image width="408" height="401" xlink:href="../../../Desktop/ProjGit/Proj%20X/Images/flying-twitter-bird-icon-.jpg"/></pattern><clipPath id="g"><rect y="-930" width="1366" height="768"/></clipPath></defs><g id="f" class="a"><rect class="y" y="-930" width="1366" height="768"/><rect class="b" width="1366" height="628" transform="translate(0 -864)"/><g transform="translate(0 -930)"><g class="c"><rect class="w" width="1366" height="72"/><rect class="x" x="0.5" y="0.5" width="1365" height="71"/></g><rect class="d" width="150" height="72" transform="translate(149)"/><text class="e" transform="translate(224 39)"><tspan x="-28.345" y="0">Home</tspan></text><rect class="f" width="116" height="72" transform="translate(299)"/><text class="e" transform="translate(353.5 39)"><tspan x="-38.267" y="0">Services</tspan></text><rect class="f" width="147" height="72" transform="translate(410)"/><path class="g" d="M541.674,30.5l7.544,14.765L556.762,30.5Z" transform="translate(-12.004 -5)"/><text class="h" transform="translate(483 39)"><tspan x="-43.677" y="0">About Us</tspan></text><g transform="translate(0 51)"><rect class="f" width="147" height="36" transform="translate(410 68)"/><text class="i" transform="translate(476 89.902)"><tspan x="-35.004" y="0">Testimonails</tspan></text></g><g transform="translate(-246 -369)"><path class="f" d="M0,0H147V47H0Z" transform="translate(656 441)"/><text class="i" transform="translate(720 478.5)"><tspan x="-38.327" y="0">Privacy Policy</tspan></text><text class="i" transform="translate(719 456.621)"><tspan x="-46.554" y="0">Legal Disclaimer</tspan></text></g><g transform="translate(0 -1)"><g class="j" transform="translate(837 16)"><rect class="w" width="231" height="39" rx="19.5"/><rect class="x" x="0.5" y="0.5" width="230" height="38" rx="19"/></g><rect class="k" width="107" height="38" rx="5" transform="translate(1074 17)"/><text class="l" transform="translate(890 41)"><tspan x="-29.385" y="0">Search</tspan></text><text class="m" transform="translate(1127 44)"><tspan x="-31.157" y="0">Search</tspan></text></g><rect class="f" width="135" height="39" transform="translate(1215 16)"/><text class="n" transform="translate(1292 41)"><tspan x="-48.047" y="0">Contact Us</tspan></text><rect class="f" width="125" height="59" transform="translate(12 5)"/><g class="z" transform="matrix(1, 0, 0, 1, 0, 930)"><path class="o" d="M1215,27.333h17.425l-8.344,12Z" transform="translate(0 -931)"/></g><path class="p" d="M1215,27.333h8.92l-4.271,4.42Z" transform="translate(1259 -1184.917) rotate(90)"/><path class="p" d="M1215,27.333h15.417l-7.382,8.167Z" transform="translate(2446.667 67.83) rotate(180)"/><path class="p" d="M1215,27.333h8.92l-4.271,4.42Z" transform="translate(1187.914 1254.003) rotate(-90)"/></g><g transform="translate(0 -930)"><g class="c" transform="translate(0 690)"><rect class="w" width="1366" height="78"/><rect class="x" x="0.5" y="0.5" width="1365" height="77"/></g><text class="q" transform="translate(65.5 715.5)"><tspan x="-39.748" y="0">Follow Us on</tspan></text><rect class="r" width="112" height="38" transform="translate(18 16)"/><image width="24" height="24" transform="translate(90 730)" xlink:href="../../../Desktop/ProjGit/Proj%20X/Images/Linkedin.png"/><rect class="s" width="25" height="24" transform="translate(26 729)"/><rect class="t" width="23" height="23.5" transform="translate(59 730)"/><g transform="translate(-440 12)"><text class="u" transform="translate(1095.5 716.5)"><tspan x="-187.339" y="0">Copyright © 2018 XYZ Company. All rights reserved | Designed &amp; Maintained by XYZ</tspan><tspan x="-136.982" y="14">Site best viewed at 1280x720 | Legal Disclaimer | Privacy Policy</tspan></text><line class="v" x2="19" transform="translate(1265.5 719.5)"/><line class="v" x2="72" transform="translate(1093.5 733.5)"/><line class="v" x1="57" transform="translate(1174.5 733.5)"/></g></g></g></svg>